<?xml version="1.0" standalone="no"?>
<!DOCTYPE svg PUBLIC "-//W3C//DTD SVG 20010904//EN"
 "http://www.w3.org/TR/2001/REC-SVG-20010904/DTD/svg10.dtd">
<svg version="1.0" xmlns="http://www.w3.org/2000/svg"
 width="367.000000pt" height="367.000000pt" viewBox="0 0 367.000000 367.000000"
 preserveAspectRatio="xMidYMid meet">
<metadata>
Created by potrace 1.14, written by Peter Selinger 2001-2017
</metadata>
<g transform="translate(0.000000,367.000000) scale(0.100000,-0.100000)"
fill="#000000" stroke="none">
<path d="M9 2513 c0 -13 0 -214 0 -448 0 -234 0 -434 0 -445 1 -19 8 -20 109
-20 l107 0 0 269 c0 148 2 268 5 266 3 -2 48 -89 100 -194 l94 -190 58 0 59 1
99 199 c55 109 101 199 103 199 1 0 1 -124 0 -275 l-2 -275 110 0 109 0 0 468
0 467 -117 0 -118 0 -106 -210 c-58 -115 -112 -223 -121 -240 l-16 -29 -120
239 -120 240 -116 0 c-114 0 -116 0 -117 -22z"/>
<path d="M2694 2533 c-29 -5 -74 -54 -80 -86 -10 -60 46 -127 107 -127 61 0
114 69 102 133 -10 50 -75 90 -129 80z"/>
<path d="M1345 2295 c-215 -65 -323 -283 -241 -485 29 -73 65 -117 135 -164
249 -167 583 28 558 326 -13 148 -113 277 -249 319 -50 16 -158 18 -203 4z
m148 -77 c17 -23 18 -31 8 -56 -23 -54 -94 -62 -120 -13 -42 77 60 140 112 69z
m-179 -51 c17 -13 28 -61 18 -86 -3 -7 -19 -19 -36 -26 -50 -21 -95 12 -96 72
0 21 42 53 70 53 14 0 34 -6 44 -13z m338 -4 c27 -31 28 -62 4 -90 -41 -47
-116 -22 -116 39 0 57 77 91 112 51z m-394 -182 c16 -20 7 -70 -16 -87 -26
-20 -69 -17 -92 8 -11 12 -20 27 -20 32 1 76 81 105 128 47z m463 12 c45 -39
15 -113 -45 -113 -65 0 -92 73 -43 116 28 24 59 23 88 -3z m-251 -22 c17 -32
12 -51 -16 -62 -21 -7 -31 -6 -44 6 -20 18 -20 35 -1 59 18 22 48 20 61 -3z
m-80 -81 c0 -5 -2 -10 -4 -10 -3 0 -8 5 -11 10 -3 6 -1 10 4 10 6 0 11 -4 11
-10z m-67 -72 c23 -27 22 -49 -4 -82 -28 -36 -73 -33 -102 6 -52 70 49 142
106 76z m311 21 c47 -22 52 -95 7 -118 -74 -40 -141 56 -75 108 31 24 35 25
68 10z m-145 -85 c23 -21 18 -74 -8 -96 -31 -24 -66 -23 -91 4 -60 65 34 154
99 92z"/>
<path d="M3210 2296 c-153 -32 -254 -140 -277 -296 -24 -158 45 -301 179 -368
171 -86 377 -47 487 92 17 21 31 42 31 46 0 3 -40 17 -90 29 l-89 23 -25 -29
c-25 -29 -81 -53 -127 -53 -47 0 -107 39 -128 84 -12 23 -21 45 -21 49 0 4
116 8 258 9 l257 3 -1 76 c-3 231 -213 386 -454 335z m176 -177 c14 -13 32
-36 40 -51 28 -54 26 -55 -131 -55 -80 0 -145 4 -145 9 0 25 32 78 61 102 30
24 41 27 91 23 44 -2 64 -9 84 -28z"/>
<path d="M1829 2289 c-5 -3 11 -61 35 -130 24 -68 77 -214 116 -324 39 -110
73 -207 74 -215 2 -12 25 -16 116 -18 62 -1 117 1 121 5 4 4 35 85 68 178 32
94 84 242 115 329 31 88 56 164 56 170 0 13 -177 13 -190 0 -7 -8 -128 -416
-143 -480 -2 -12 -1 -28 4 -35 4 -7 3 -22 -3 -33 -10 -18 -12 -18 -23 -3 -8
11 -10 30 -6 50 5 24 -10 90 -61 266 -38 129 -70 236 -72 238 -6 7 -197 8
-207 2z m411 -600 c0 -5 -25 -9 -55 -9 -54 0 -77 15 -32 22 34 5 87 -3 87 -13z"/>
<path d="M2633 2292 l-23 -3 0 -345 0 -345 108 3 107 3 0 343 c1 301 -1 342
-15 343 -59 3 -159 3 -177 1z"/>
<path d="M1859 1532 c-1 -4 -2 -96 -3 -204 l-2 -198 149 0 148 0 -3 42 -3 43
-95 0 -95 1 -2 119 c-1 66 -2 139 -2 162 l-1 41 -45 0 c-25 0 -46 -3 -46 -6z"/>
<path d="M2165 1426 c-30 -30 -41 -87 -25 -127 16 -37 83 -108 138 -144 l41
-27 51 37 c63 46 118 110 129 150 26 98 -82 176 -153 110 l-28 -25 -30 25
c-39 33 -90 34 -123 1z"/>
<path d="M2524 1428 c-3 -5 -2 -12 1 -18 3 -5 8 -18 10 -27 2 -10 23 -71 47
-135 l42 -118 51 0 52 0 49 142 c27 79 49 147 49 153 0 9 -72 12 -81 3 -2 -2
-15 -44 -29 -94 -14 -49 -28 -96 -31 -104 -3 -8 -20 34 -38 94 l-32 109 -43 1
c-23 1 -45 -2 -47 -6z"/>
<path d="M2930 1433 c-28 -10 -79 -66 -85 -92 -13 -61 -13 -73 -3 -104 31 -94
144 -135 238 -87 33 17 60 45 60 63 0 14 -70 16 -96 2 -16 -8 -38 -15 -49 -15
-26 1 -55 23 -55 43 0 14 14 16 88 16 131 -1 132 -1 132 19 0 64 -42 132 -94
152 -28 10 -110 12 -136 3z m115 -86 c8 -11 12 -23 10 -27 -2 -4 -30 -6 -62
-5 -62 2 -71 14 -33 46 24 21 66 14 85 -14z"/>
<path d="M3202 1426 c-4 -8 -7 -249 -3 -288 1 -5 21 -8 46 -8 l45 0 0 95 0 94
30 16 c16 8 38 15 50 15 17 0 20 6 20 39 0 22 -4 42 -9 45 -15 9 -64 -13 -84
-37 -12 -15 -17 -17 -16 -7 4 39 -1 45 -37 45 -20 0 -39 -4 -42 -9z"/>
<path d="M3463 1428 c-23 -11 -53 -64 -53 -92 0 -29 46 -64 104 -81 43 -13 56
-21 56 -36 0 -25 -47 -26 -97 -2 -34 16 -36 16 -49 -2 -23 -31 -16 -45 32 -67
65 -28 145 -22 182 15 37 37 36 91 -2 123 -15 13 -34 24 -41 24 -27 0 -95 32
-95 45 0 23 43 25 82 5 l38 -20 16 31 c8 17 14 32 12 33 -40 30 -59 36 -108
35 -30 0 -65 -5 -77 -11z"/>
</g>
</svg>
